<?xml version="1.0" standalone="no"?><svg xmlns="http://www.w3.org/2000/svg" viewBox="0 0 1440 320"><path fill="#0099ff" fill-opacity="1" d="M0,224L26.7,192C53.3,160,107,96,160,90.7C213.3,85,267,139,320,181.3C373.3,224,427,256,480,224C533.3,192,587,96,640,85.3C693.3,75,747,149,800,197.3C853.3,245,907,267,960,272C1013.3,277,1067,267,1120,245.3C1173.3,224,1227,192,1280,181.3C1333.3,171,1387,181,1413,186.7L1440,192L1440,0L1413.3,0C1386.7,0,1333,0,1280,0C1226.7,0,1173,0,1120,0C1066.7,0,1013,0,960,0C906.7,0,853,0,800,0C746.7,0,693,0,640,0C586.7,0,533,0,480,0C426.7,0,373,0,320,0C266.7,0,213,0,160,0C106.7,0,53,0,27,0L0,0Z"></path></svg>